<?xml version="1.0" standalone="no"?>
<!DOCTYPE svg PUBLIC "-//W3C//DTD SVG 20010904//EN"
 "http://www.w3.org/TR/2001/REC-SVG-20010904/DTD/svg10.dtd">
<svg version="1.0" xmlns="http://www.w3.org/2000/svg"
 width="806.000000pt" height="806.000000pt" viewBox="0 0 806.000000 806.000000"
 preserveAspectRatio="xMidYMid meet">
<metadata>
Created by potrace 1.14, written by Peter Selinger 2001-2017
</metadata>
<g transform="translate(0.000000,806.000000) scale(0.100000,-0.100000)"
fill="#000000" stroke="none">
<path d="M5480 7614 c-238 -43 -527 -178 -810 -378 -79 -56 -265 -202 -300
-236 -9 -8 -47 -42 -85 -75 -38 -33 -120 -111 -184 -172 -63 -62 -116 -113
-118 -113 -1 0 -37 33 -80 74 -451 425 -908 713 -1300 818 -108 29 -131 31
-273 32 -142 0 -161 -2 -235 -27 -183 -61 -307 -171 -398 -352 -39 -77 -83
-202 -93 -261 -3 -22 -7 -41 -9 -44 -2 -3 -11 -57 -20 -120 -15 -112 -21 -388
-10 -510 6 -60 24 -220 30 -260 3 -14 7 -43 10 -65 14 -98 78 -398 92 -435 4
-8 6 -18 5 -22 -1 -3 9 -43 22 -88 l24 -81 -21 -9 c-12 -5 -85 -29 -162 -53
-237 -75 -411 -145 -630 -252 -535 -263 -831 -547 -910 -873 -24 -97 -17 -250
15 -345 100 -297 425 -581 915 -799 117 -52 370 -150 395 -152 9 -1 20 -4 25
-8 17 -9 205 -66 310 -93 55 -14 101 -28 104 -30 2 -3 -10 -64 -27 -137 -28
-120 -54 -253 -66 -333 -24 -160 -23 -152 -37 -295 -14 -136 -17 -457 -6 -559
44 -410 172 -681 391 -826 28 -19 89 -49 136 -67 82 -31 91 -32 235 -33 133 0
162 3 250 27 166 45 309 105 467 196 77 45 252 158 281 182 7 6 48 37 92 71
44 33 92 70 106 82 161 137 214 186 360 330 l100 97 137 -124 c237 -215 433
-363 687 -518 192 -117 487 -243 610 -262 22 -4 47 -8 55 -11 49 -15 237 -21
290 -10 14 3 36 7 50 10 232 42 426 235 520 515 56 167 75 307 75 565 0 200
-10 339 -40 530 -4 30 -29 157 -40 205 -3 14 -8 39 -10 55 -3 17 -8 37 -10 45
-2 8 -6 27 -9 41 -6 34 -45 184 -62 237 -8 23 -14 49 -14 56 0 8 27 20 68 31
98 26 416 137 495 173 37 17 67 29 67 27 0 -3 334 164 388 195 15 8 41 25 59
38 17 12 34 22 37 22 8 0 47 27 161 112 85 63 181 151 251 229 45 50 134 186
127 193 -4 3 -1 6 6 6 7 0 10 4 7 9 -4 5 -2 11 2 13 5 1 21 39 36 83 66 190
36 393 -83 575 -20 30 -40 58 -46 62 -5 4 -7 8 -3 8 4 0 -3 10 -15 23 -12 13
-38 41 -58 62 -20 22 -62 63 -94 90 -31 28 -66 58 -76 68 -11 9 -23 17 -28 17
-5 0 -11 4 -13 9 -6 16 -203 139 -320 201 -93 48 -302 145 -323 150 -3 0 -20
7 -40 15 -35 15 -257 93 -285 100 -8 3 -76 22 -150 44 -74 22 -146 42 -160 45
-53 12 -54 16 -31 112 43 186 94 476 106 604 31 355 24 644 -21 850 -85 383
-271 616 -549 685 -97 24 -241 28 -345 9z m-163 -1277 c-6 -95 -56 -416 -77
-497 -47 -177 -54 -227 -54 -380 1 -125 5 -170 22 -232 108 -395 409 -682 932
-888 102 -40 272 -100 301 -105 21 -4 252 -80 292 -96 15 -6 27 -15 27 -20 0
-19 -236 -124 -426 -189 -116 -40 -391 -120 -410 -120 -5 0 -20 22 -33 48 -68
136 -195 293 -316 390 -54 44 -225 127 -305 149 -91 24 -300 24 -390 -1 -79
-21 -175 -67 -254 -120 -51 -34 -196 -170 -232 -218 -216 -285 -298 -592 -230
-860 38 -151 101 -263 210 -371 128 -128 299 -218 496 -261 98 -21 122 -24
270 -25 l126 -1 52 -162 c61 -192 113 -391 142 -541 23 -125 23 -127 10 -127
-37 0 -376 264 -545 425 -93 88 -240 189 -340 232 -129 56 -234 77 -385 76
-154 -1 -244 -17 -388 -69 -146 -53 -381 -179 -479 -258 -10 -8 -56 -45 -103
-82 -47 -37 -101 -82 -120 -99 -91 -83 -176 -161 -191 -175 -80 -77 -158 -140
-172 -140 -17 0 3 223 38 418 19 112 88 401 105 439 8 20 16 21 117 22 123 0
268 20 363 52 59 19 228 102 240 118 3 4 25 22 50 41 25 19 56 48 70 64 14 17
32 37 41 45 39 39 131 198 129 224 0 4 7 21 15 37 8 16 15 32 14 35 0 3 5 38
11 78 45 262 -65 603 -274 852 -28 33 -57 64 -64 69 -8 4 -21 17 -31 28 -47
55 -174 134 -276 171 -313 112 -660 17 -923 -252 -73 -74 -172 -212 -218 -303
-17 -33 -30 -48 -44 -48 -21 0 -141 26 -290 61 -47 12 -94 23 -104 25 -26 5
-56 14 -243 74 -104 34 -163 58 -163 66 0 28 261 139 525 224 216 69 287 96
370 143 242 136 412 364 485 650 67 265 58 614 -26 982 -32 140 -65 293 -70
325 -2 14 -6 40 -9 58 -3 17 -3 32 1 32 10 0 149 -96 224 -154 97 -75 274
-233 373 -334 l89 -89 -27 -43 c-55 -87 -123 -238 -151 -335 -25 -88 -29 -117
-29 -235 0 -80 5 -156 13 -186 7 -29 15 -58 17 -65 14 -62 76 -189 117 -243
17 -23 57 -67 90 -98 212 -208 577 -298 943 -232 44 8 189 55 200 65 5 5 15 9
23 9 23 0 174 104 226 156 295 295 312 796 41 1220 l-33 51 25 29 c117 138
332 358 447 459 38 33 83 72 99 88 17 15 34 27 40 27 6 0 8 -37 4 -103z"/>
</g>
</svg>
